<?xml version="1.0" encoding="utf-8"?>
<!-- Generator: Adobe Illustrator 20.0.0, SVG Export Plug-In . SVG Version: 6.00 Build 0)  -->
<svg version="1.1" id="Layer_1" xmlns="http://www.w3.org/2000/svg" xmlns:xlink="http://www.w3.org/1999/xlink" x="0px" y="0px"
	 viewBox="0 0 28.8 43.2" style="enable-background:new 0 0 28.8 43.2;" xml:space="preserve">
<style type="text/css">
	.st0{fill:#C69C6D;stroke:#000000;}
</style>
<g>
	<g>
		<path class="st0" d="M1.6,29.5C1,25.6,4,23,8.8,20.8c0-0.1,0-0.1-0.1-0.2c-4.3-2-6-4.6-5.7-7.4C3.9,8.4,9.2,1.5,14.5,1.5
			C20.4,2,24.7,8.9,25.3,12.6c0.4,2.8-1,5.4-5.8,7.6c0,0.1,0,0.1,0,0.2c4.9,2.1,7.9,4.7,7.4,8.4c-1,5-7,12.8-12.8,12.9
			C7.8,41.4,2.4,33.6,1.6,29.5z M21.7,30.4c0.3-4.4-3-6.3-8.3-7.9c-4.6,1.4-7,4.1-6.7,7.5c0.1,3.5,3.2,7.9,7.5,8
			C18.3,37.9,21.4,34,21.7,30.4z M7.8,12c-0.3,3.7,2.6,5.5,7.1,6.7c3.4-1.2,5.9-3.3,5.6-6.6c-0.2-2.9-2.2-6.7-6.3-6.8
			C10.5,5.3,8.1,8.9,7.8,12z"/>
	</g>
</g>
</svg>
