<?xml version="1.0" encoding="UTF-8"?>
<svg id="Layer_1" data-name="Layer 1" xmlns="http://www.w3.org/2000/svg" version="1.1" viewBox="0 0 302 336">
  <defs>
    <style>
      .cls-1 {
        fill: #fff;
      }

      .cls-1, .cls-2, .cls-3, .cls-4 {
        stroke: #231f20;
        stroke-miterlimit: 10;
        stroke-width: 2px;
      }

      .cls-2 {
        fill: none;
      }

      .cls-3 {
        fill: #231f20;
      }

      .cls-4 {
        fill: #ffdeaa;
      }
    </style>
  </defs>
  <path class="cls-4" d="M110.4,143.2c-22.5,16.1-34,43.6-39.9,70.6-2.7,12.5-4.5,25.6-.8,37.8,2.3,7.8,6.8,14.8,12.4,20.8,11.4,12.3,27.3,20.2,44,21.7.6,4.6.3,9.4-.8,14-5.8-1-12.3,1.1-15.5,6s-2.3,12.4,2.7,15.7c2.9,1.9,6.6,2.2,10.1,2.4,5.3.3,10.9.5,15.7-1.9s8.1-8.5,5.6-13.2c-.8-1.6-2.2-2.8-3.2-4.3-3.5-4.9-2.7-11.6-1.8-17.5,10.4,2,21.6-.4,30.3-6.4,3.1,7.2,4.7,15,4.7,22.8-5.4-3-11.6,5.1-9.1,10.7s9.6,7.6,15.8,7.2c8.3-.5,16.3-4.4,22-10.5,1.3-1.4,2.5-3,2.4-4.9-.2-3.7-4.8-4.9-8.1-6.6-7.6-4-9.3-16-3.1-21.9,2.5-2.4,5.7-3.7,8.5-5.7,5.6-4,9.1-10.2,11.9-16.5,13.9-31.2,14.4-68.1,1.3-99.6-4.7-11.3-11.4-22.3-21.8-28.6,18.9-.4,37.5-6.2,52.4-18,1.3,5.5,6.9,10.3,12.4,9s7.7-10.3,2.6-12.8c4.9-5.5,7.2-13.2,6-20.4-3.2-1.2-7.1,0-8.9,2.9-.1-1.9-.2-3.7-.3-5.6-5.5-2-12.3,2.2-12.9,8-21.9,1-41.9,12-61.1,22.8,8.7-14.2,15.8-29.9,16.9-46.5s-4.6-34.3-17.7-44.7c-10.7-8.5-24.9-11.2-38.5-11.7-6.7-.2-13.7,0-19.5,3.4-5.3,3-9.1,8.2-12.6,13.2-8.1,11.4-16.5,23.6-17.8,37.5-1,11.2,2.7,22.2,7.2,32.5,3.8,8.7,8.3,17.2,13.3,25.3-22.1-2.3-44-8.6-63.6-19-.8-.4-1.6-.9-2-1.7-.5-1,0-2.2,0-3.3.9-5.2-3.6-10.6-8.8-10.8-2.5-.1-5.2.9-6.6,3s-1.3,5.2.7,6.9c-2.1-3.2-7.9-1.9-9.2,1.7s1.2,7.8,4.7,9.3c-2.6,2.3-3.9,6.1-2.8,9.4s4.9,5.5,8.3,4.5c1.2-.3,2.2-1,3.4-1.4,3-1,6.3.2,9.3,1.2,19.7,7.1,41.1,10.7,61.8,13.1Z"/>
  <path class="cls-2" d="M131.3,106.6c5.1,5.5,11.7,10.2,19.2,11s15.9-3.1,18.2-10.2"/>
  <path class="cls-1" d="M142,55.4c2.7,2.4,5.2,4.8,7.6,7.4,5.8,6.4,10.8,14.1,9.7,22.2-.8,5.6-4.7,10.9-10.3,13.8l7.3,4.5c-17.6-10.5-24.4-28.6-16.5-43.5,2.1-3.9,5-7.5,7.9-11.2"/>
  <circle class="cls-3" cx="134.3" cy="39.8" r="1.1"/>
  <circle class="cls-3" cx="160.5" cy="39.8" r="1.1"/>
  <path class="cls-1" d="M139.5,243.9c6.6-4.3,11.4-11.1,13.1-18.7.7-3.1.9-6.2,1.1-9.4.4-6.4.8-12.9.1-19.2-1.2-10.4-5.5-20.5-12.2-28.6l9.9-4c-9.7,1.2-15.6,11.2-18.9,20.4-3.7,10.1-6.1,20.9-4.9,31.5,1.2,10.7,6.6,21.2,15.8,26.8,4.7,2.9,10.3,4.3,15.9,4.1"/>
</svg>